<?xml version="1.0" encoding="UTF-8" standalone="no"?>
<!-- Created with Inkscape (http://www.inkscape.org/) -->

<svg
   xmlns:dc="http://purl.org/dc/elements/1.1/"
   xmlns:cc="http://creativecommons.org/ns#"
   xmlns:rdf="http://www.w3.org/1999/02/22-rdf-syntax-ns#"
   xmlns:svg="http://www.w3.org/2000/svg"
   xmlns="http://www.w3.org/2000/svg"
   xmlns:sodipodi="http://sodipodi.sourceforge.net/DTD/sodipodi-0.dtd"
   xmlns:inkscape="http://www.inkscape.org/namespaces/inkscape"
   width="32"
   height="32"
   id="svg2"
   version="1.1"
   inkscape:version="0.48.2 r9819"
   sodipodi:docname="New document 1">
  <defs
     id="defs4" />
  <sodipodi:namedview
     id="base"
     pagecolor="#ffffff"
     bordercolor="#666666"
     borderopacity="1.0"
     inkscape:pageopacity="0.0"
     inkscape:pageshadow="2"
     inkscape:zoom="3.959798"
     inkscape:cx="106.64344"
     inkscape:cy="18.984745"
     inkscape:document-units="px"
     inkscape:current-layer="layer1"
     showgrid="false"
     inkscape:window-width="1366"
     inkscape:window-height="716"
     inkscape:window-x="-8"
     inkscape:window-y="-8"
     inkscape:window-maximized="1" />
  <metadata
     id="metadata7">
    <rdf:RDF>
      <cc:Work
         rdf:about="">
        <dc:format>image/svg+xml</dc:format>
        <dc:type
           rdf:resource="http://purl.org/dc/dcmitype/StillImage" />
        <dc:title></dc:title>
      </cc:Work>
    </rdf:RDF>
  </metadata>
  <g
     inkscape:label="Layer 1"
     inkscape:groupmode="layer"
     id="layer1"
     transform="translate(0,-1020.3622)">
    <path
       sodipodi:type="arc"
       style="fill:#000000;fill-rule:evenodd;stroke:none"
       id="path2985"
       sodipodi:cx="121.42857"
       sodipodi:cy="26.647898"
       sodipodi:rx="127.14286"
       sodipodi:ry="128.57143"
       d="m 248.57143,26.647898 a 127.14286,128.57143 0 1 1 -254.2857168,0 127.14286,128.57143 0 1 1 254.2857168,0 z"
       transform="matrix(0.12584269,0,0,0.12444445,0.71910142,1033.046)" />
    <path
       sodipodi:type="arc"
       style="fill:#ffffff;stroke:none"
       id="path3763"
       sodipodi:cx="-907.14288"
       sodipodi:cy="-99.066391"
       sodipodi:rx="104.28571"
       sodipodi:ry="97.14286"
       d="m -802.85717,-99.066391 a 104.28571,97.14286 0 1 1 -208.57143,0 104.28571,97.14286 0 1 1 208.57143,0 z"
       transform="matrix(0.12584269,0,0,0.12444445,130.51685,1046.5571)" />
    <path
       sodipodi:type="arc"
       style="fill:#000000;stroke:none"
       id="path3767"
       sodipodi:cx="-128.57143"
       sodipodi:cy="-226.20924"
       sodipodi:rx="28.571428"
       sodipodi:ry="61.42857"
       d="m -99.999998,-226.20924 a 28.571428,61.42857 0 1 1 -57.142852,0 28.571428,61.42857 0 1 1 57.142852,0 z"
       transform="matrix(0.29573032,0,0,0.13602069,54.741571,1064.1091)" />
    <path
       sodipodi:type="arc"
       style="fill:#ffffff;stroke:none"
       id="path3780"
       sodipodi:cx="-277.14285"
       sodipodi:cy="-206.20924"
       sodipodi:rx="40"
       sodipodi:ry="44.285713"
       d="m -237.14285,-206.20924 a 40,44.285713 0 1 1 -80,0 40,44.285713 0 1 1 80,0 z"
       transform="matrix(0.12584269,0,0,0.12444445,51.415728,1060.7793)" />
  </g>
</svg>
